# xmcd
#
# Track frame offsets:
#	150
#	10382
#	29045
#	45111
#	67898
#	87261
#	106149
#	109709
#	120932
#	133663
#	150032
#	165454
#	197961
#	220816
#
# Disc length: 3189 seconds
#
# Revision: 4
# Processed by: cddbd v1.4PL0 Copyright (c) Steve Scherf et al.
# Submitted via: EasyCDDAExtractor 6.0.0.1
#
DISCID=a70c730e
DTITLE=The Love Dogs - New Tricks
DYEAR=2000
DGENRE=Blues
TTITLE0=Don't Bug Me
TTITLE1=Northbound Train
TTITLE2=The Day Before I Met You
TTITLE3=Long, Long Day
TTITLE4=You'll Never Know
TTITLE5=Why Did You Lie?
TTITLE6=Nobody's Dog Part 3
TTITLE7=Watch That Dog
TTITLE8=Well Oh Well
TTITLE9=Hand It Over
TTITLE10=You Be My Baby
TTITLE11=Someone To Blame
TTITLE12=Richest Guy In The Graveyard
TTITLE13=Flexible Flyer - She Puts Up With Me
EXTD=
EXTT0=
EXTT1=
EXTT2=
EXTT3=
EXTT4=
EXTT5=
EXTT6=
EXTT7=
EXTT8=
EXTT9=
EXTT10=
EXTT11=
EXTT12=
EXTT13=
PLAYORDER=
